运行 java测试 案例 com.example.demo.FFmpegJNITest
sbc run -t -v /home/user/JAVA-TEST/java-rtf-test/ffmpeg/files:/tmp@/home/user/JAVA-TEST/java-rtf-test/rmi.sh:/opt/app/lib/logback-classic-1.2.3.jar@/home/user/JAVA-TEST/java-rtf-test/test-classes/com:/opt/app/test-classes/com -p docker.bplatform.demo/java_rtf_sw:2.1 docker.bplatform.demo/java_rtf_test_all:1.0  /opt/app/runTest com.example.demo.FFmpegJNITest encoding_muxing /tmp/02.yuv /tmp/02.pcm /tmp/02.muxing.mp4
TEST_DIR=/opt/app
/usr/lib/jvm/java-11-openjdk-sw_64/bin/java -classpath /opt/app/lib/*:/opt/app/classes:/opt/app/test-classes com.example.demo.FFmpegJNITest encoding_muxing /tmp/02.yuv /tmp/02.pcm /tmp/02.muxing.mp4
合成视频
[48;5;0m[38;5;51m[libx264 @ 0x40b70c76dc30] [0musing cpu capabilities: none!
[48;5;0m[38;5;51m[libx264 @ 0x40b70c76dc30] [0mprofile High, level 3.0
[48;5;0m[38;5;51m[libx264 @ 0x40b70c76dc30] [0m264 - core 155 r2917 0a84d98 - H.264/MPEG-4 AVC codec - Copyleft 2003-2018 - http://www.videolan.org/x264.html - options: cabac=1 ref=3 deblock=1:0:0 analyse=0x3:0x113 me=hex subme=7 psy=1 psy_rd=1.00:0.00 mixed_ref=1 me_range=16 chroma_me=1 trellis=1 8x8dct=1 cqm=0 deadzone=21,11 fast_pskip=1 chroma_qp_offset=-2 threads=15 lookahead_threads=2 sliced_threads=0 nr=0 decimate=1 interlaced=0 bluray_compat=0 constrained_intra=0 bframes=3 b_pyramid=2 b_adapt=1 b_bias=0 direct=1 weightb=1 open_gop=0 weightp=2 keyint=12 keyint_min=1 scenecut=40 intra_refresh=0 rc_lookahead=12 rc=abr mbtree=1 bitrate=400 ratetol=1.0 qcomp=0.60 qpmin=0 qpmax=69 qpstep=4 ip_ratio=1.40 aq=1:1.00
Output #0, mp4, to '/tmp/02.muxing.mp4':
    Stream #0:0: Video: h264, yuv420p, 640x480, q=2-31, 400 kb/s, 25 tbn
    Stream #0:1: Audio: aac (LC), 44100 Hz, stereo, fltp, 64 kb/s
pts:-1024 pts_time:-0.02322 dts:-1024 dts_time:-0.02322 duration:1024 duration_time:0.02322 stream_index:1
pts:0 pts_time:0 dts:0 dts_time:0 duration:1024 duration_time:0.02322 stream_index:1
pts:1024 pts_time:0.02322 dts:1024 dts_time:0.02322 duration:1024 duration_time:0.02322 stream_index:1
pts:2048 pts_time:0.0464399 dts:2048 dts_time:0.0464399 duration:1024 duration_time:0.02322 stream_index:1
pts:3072 pts_time:0.0696599 dts:3072 dts_time:0.0696599 duration:1024 duration_time:0.02322 stream_index:1
pts:4096 pts_time:0.0928798 dts:4096 dts_time:0.0928798 duration:1024 duration_time:0.02322 stream_index:1
pts:5120 pts_time:0.1161 dts:5120 dts_time:0.1161 duration:1024 duration_time:0.02322 stream_index:1
pts:6144 pts_time:0.13932 dts:6144 dts_time:0.13932 duration:1024 duration_time:0.02322 stream_index:1
pts:7168 pts_time:0.16254 dts:7168 dts_time:0.16254 duration:1024 duration_time:0.02322 stream_index:1
pts:8192 pts_time:0.18576 dts:8192 dts_time:0.18576 duration:1024 duration_time:0.02322 stream_index:1
pts:9216 pts_time:0.20898 dts:9216 dts_time:0.20898 duration:1024 duration_time:0.02322 stream_index:1
pts:10240 pts_time:0.2322 dts:10240 dts_time:0.2322 duration:1024 duration_time:0.02322 stream_index:1
pts:11264 pts_time:0.25542 dts:11264 dts_time:0.25542 duration:1024 duration_time:0.02322 stream_index:1
pts:12288 pts_time:0.278639 dts:12288 dts_time:0.278639 duration:1024 duration_time:0.02322 stream_index:1
pts:13312 pts_time:0.301859 dts:13312 dts_time:0.301859 duration:1024 duration_time:0.02322 stream_index:1
pts:14336 pts_time:0.325079 dts:14336 dts_time:0.325079 duration:1024 duration_time:0.02322 stream_index:1
pts:15360 pts_time:0.348299 dts:15360 dts_time:0.348299 duration:1024 duration_time:0.02322 stream_index:1
pts:16384 pts_time:0.371519 dts:16384 dts_time:0.371519 duration:1024 duration_time:0.02322 stream_index:1
pts:17408 pts_time:0.394739 dts:17408 dts_time:0.394739 duration:1024 duration_time:0.02322 stream_index:1
pts:18432 pts_time:0.417959 dts:18432 dts_time:0.417959 duration:1024 duration_time:0.02322 stream_index:1
pts:19456 pts_time:0.441179 dts:19456 dts_time:0.441179 duration:1024 duration_time:0.02322 stream_index:1
pts:20480 pts_time:0.464399 dts:20480 dts_time:0.464399 duration:1024 duration_time:0.02322 stream_index:1
pts:21504 pts_time:0.487619 dts:21504 dts_time:0.487619 duration:1024 duration_time:0.02322 stream_index:1
pts:22528 pts_time:0.510839 dts:22528 dts_time:0.510839 duration:1024 duration_time:0.02322 stream_index:1
pts:23552 pts_time:0.534059 dts:23552 dts_time:0.534059 duration:1024 duration_time:0.02322 stream_index:1
pts:24576 pts_time:0.557279 dts:24576 dts_time:0.557279 duration:1024 duration_time:0.02322 stream_index:1
pts:25600 pts_time:0.580499 dts:25600 dts_time:0.580499 duration:1024 duration_time:0.02322 stream_index:1
pts:26624 pts_time:0.603719 dts:26624 dts_time:0.603719 duration:1024 duration_time:0.02322 stream_index:1
pts:27648 pts_time:0.626939 dts:27648 dts_time:0.626939 duration:1024 duration_time:0.02322 stream_index:1
pts:28672 pts_time:0.650159 dts:28672 dts_time:0.650159 duration:1024 duration_time:0.02322 stream_index:1
pts:29696 pts_time:0.673379 dts:29696 dts_time:0.673379 duration:1024 duration_time:0.02322 stream_index:1
pts:30720 pts_time:0.696599 dts:30720 dts_time:0.696599 duration:1024 duration_time:0.02322 stream_index:1
pts:31744 pts_time:0.719819 dts:31744 dts_time:0.719819 duration:1024 duration_time:0.02322 stream_index:1
pts:32768 pts_time:0.743039 dts:32768 dts_time:0.743039 duration:1024 duration_time:0.02322 stream_index:1
pts:33792 pts_time:0.766259 dts:33792 dts_time:0.766259 duration:1024 duration_time:0.02322 stream_index:1
pts:34816 pts_time:0.789478 dts:34816 dts_time:0.789478 duration:1024 duration_time:0.02322 stream_index:1
pts:35840 pts_time:0.812698 dts:35840 dts_time:0.812698 duration:1024 duration_time:0.02322 stream_index:1
pts:36864 pts_time:0.835918 dts:36864 dts_time:0.835918 duration:1024 duration_time:0.02322 stream_index:1
pts:37888 pts_time:0.859138 dts:37888 dts_time:0.859138 duration:1024 duration_time:0.02322 stream_index:1
pts:38912 pts_time:0.882358 dts:38912 dts_time:0.882358 duration:1024 duration_time:0.02322 stream_index:1
pts:39936 pts_time:0.905578 dts:39936 dts_time:0.905578 duration:1024 duration_time:0.02322 stream_index:1
pts:40960 pts_time:0.928798 dts:40960 dts_time:0.928798 duration:1024 duration_time:0.02322 stream_index:1
pts:41984 pts_time:0.952018 dts:41984 dts_time:0.952018 duration:1024 duration_time:0.02322 stream_index:1
pts:43008 pts_time:0.975238 dts:43008 dts_time:0.975238 duration:1024 duration_time:0.02322 stream_index:1
pts:44032 pts_time:0.998458 dts:44032 dts_time:0.998458 duration:1024 duration_time:0.02322 stream_index:1
pts:45056 pts_time:1.02168 dts:45056 dts_time:1.02168 duration:1024 duration_time:0.02322 stream_index:1
pts:46080 pts_time:1.0449 dts:46080 dts_time:1.0449 duration:1024 duration_time:0.02322 stream_index:1
pts:47104 pts_time:1.06812 dts:47104 dts_time:1.06812 duration:1024 duration_time:0.02322 stream_index:1
pts:48128 pts_time:1.09134 dts:48128 dts_time:1.09134 duration:1024 duration_time:0.02322 stream_index:1
pts:49152 pts_time:1.11456 dts:49152 dts_time:1.11456 duration:1024 duration_time:0.02322 stream_index:1
pts:50176 pts_time:1.13778 dts:50176 dts_time:1.13778 duration:1024 duration_time:0.02322 stream_index:1
pts:51200 pts_time:1.161 dts:51200 dts_time:1.161 duration:1024 duration_time:0.02322 stream_index:1
pts:52224 pts_time:1.18422 dts:52224 dts_time:1.18422 duration:1024 duration_time:0.02322 stream_index:1
pts:0 pts_time:0 dts:-1024 dts_time:-0.08 duration:0 duration_time:0 stream_index:0
pts:53248 pts_time:1.20744 dts:53248 dts_time:1.20744 duration:1024 duration_time:0.02322 stream_index:1
pts:54272 pts_time:1.23066 dts:54272 dts_time:1.23066 duration:1024 duration_time:0.02322 stream_index:1
pts:512 pts_time:0.04 dts:-512 dts_time:-0.04 duration:0 duration_time:0 stream_index:0
pts:55296 pts_time:1.25388 dts:55296 dts_time:1.25388 duration:1024 duration_time:0.02322 stream_index:1
pts:2560 pts_time:0.2 dts:0 dts_time:0 duration:0 duration_time:0 stream_index:0
pts:56320 pts_time:1.2771 dts:56320 dts_time:1.2771 duration:1024 duration_time:0.02322 stream_index:1
pts:57344 pts_time:1.30032 dts:57344 dts_time:1.30032 duration:1024 duration_time:0.02322 stream_index:1
pts:1536 pts_time:0.12 dts:512 dts_time:0.04 duration:0 duration_time:0 stream_index:0
pts:58368 pts_time:1.32354 dts:58368 dts_time:1.32354 duration:1024 duration_time:0.02322 stream_index:1
pts:59392 pts_time:1.34676 dts:59392 dts_time:1.34676 duration:1024 duration_time:0.02322 stream_index:1
pts:1024 pts_time:0.08 dts:1024 dts_time:0.08 duration:0 duration_time:0 stream_index:0
pts:60416 pts_time:1.36998 dts:60416 dts_time:1.36998 duration:1024 duration_time:0.02322 stream_index:1
pts:61440 pts_time:1.3932 dts:61440 dts_time:1.3932 duration:1024 duration_time:0.02322 stream_index:1
pts:2048 pts_time:0.16 dts:1536 dts_time:0.12 duration:0 duration_time:0 stream_index:0
pts:62464 pts_time:1.41642 dts:62464 dts_time:1.41642 duration:1024 duration_time:0.02322 stream_index:1
pts:3584 pts_time:0.28 dts:2048 dts_time:0.16 duration:0 duration_time:0 stream_index:0
pts:63488 pts_time:1.43964 dts:63488 dts_time:1.43964 duration:1024 duration_time:0.02322 stream_index:1
pts:64512 pts_time:1.46286 dts:64512 dts_time:1.46286 duration:1024 duration_time:0.02322 stream_index:1
pts:3072 pts_time:0.24 dts:2560 dts_time:0.2 duration:0 duration_time:0 stream_index:0
pts:65536 pts_time:1.48608 dts:65536 dts_time:1.48608 duration:1024 duration_time:0.02322 stream_index:1
pts:66560 pts_time:1.5093 dts:66560 dts_time:1.5093 duration:1024 duration_time:0.02322 stream_index:1
pts:5120 pts_time:0.4 dts:3072 dts_time:0.24 duration:0 duration_time:0 stream_index:0
pts:67584 pts_time:1.53252 dts:67584 dts_time:1.53252 duration:1024 duration_time:0.02322 stream_index:1
pts:4096 pts_time:0.32 dts:3584 dts_time:0.28 duration:0 duration_time:0 stream_index:0
pts:68608 pts_time:1.55574 dts:68608 dts_time:1.55574 duration:1024 duration_time:0.02322 stream_index:1
pts:69632 pts_time:1.57896 dts:69632 dts_time:1.57896 duration:1024 duration_time:0.02322 stream_index:1
pts:4608 pts_time:0.36 dts:4096 dts_time:0.32 duration:0 duration_time:0 stream_index:0
pts:70656 pts_time:1.60218 dts:70656 dts_time:1.60218 duration:1024 duration_time:0.02322 stream_index:1
pts:71680 pts_time:1.6254 dts:71680 dts_time:1.6254 duration:1024 duration_time:0.02322 stream_index:1
pts:5632 pts_time:0.44 dts:4608 dts_time:0.36 duration:0 duration_time:0 stream_index:0
pts:72704 pts_time:1.64862 dts:72704 dts_time:1.64862 duration:1024 duration_time:0.02322 stream_index:1
pts:73728 pts_time:1.67184 dts:73728 dts_time:1.67184 duration:1024 duration_time:0.02322 stream_index:1
pts:6144 pts_time:0.48 dts:5120 dts_time:0.4 duration:0 duration_time:0 stream_index:0
pts:74752 pts_time:1.69506 dts:74752 dts_time:1.69506 duration:1024 duration_time:0.02322 stream_index:1
pts:6656 pts_time:0.52 dts:5632 dts_time:0.44 duration:0 duration_time:0 stream_index:0
pts:75776 pts_time:1.71828 dts:75776 dts_time:1.71828 duration:1024 duration_time:0.02322 stream_index:1
pts:76800 pts_time:1.7415 dts:76800 dts_time:1.7415 duration:1024 duration_time:0.02322 stream_index:1
pts:7680 pts_time:0.6 dts:6144 dts_time:0.48 duration:0 duration_time:0 stream_index:0
pts:77824 pts_time:1.76472 dts:77824 dts_time:1.76472 duration:1024 duration_time:0.02322 stream_index:1
pts:78848 pts_time:1.78794 dts:78848 dts_time:1.78794 duration:1024 duration_time:0.02322 stream_index:1
pts:7168 pts_time:0.56 dts:6656 dts_time:0.52 duration:0 duration_time:0 stream_index:0
pts:79872 pts_time:1.81116 dts:79872 dts_time:1.81116 duration:1024 duration_time:0.02322 stream_index:1
pts:8192 pts_time:0.64 dts:7168 dts_time:0.56 duration:0 duration_time:0 stream_index:0
pts:80896 pts_time:1.83438 dts:80896 dts_time:1.83438 duration:1024 duration_time:0.02322 stream_index:1
pts:81920 pts_time:1.8576 dts:81920 dts_time:1.8576 duration:1024 duration_time:0.02322 stream_index:1
pts:8704 pts_time:0.68 dts:7680 dts_time:0.6 duration:0 duration_time:0 stream_index:0
pts:82944 pts_time:1.88082 dts:82944 dts_time:1.88082 duration:1024 duration_time:0.02322 stream_index:1
pts:83968 pts_time:1.90404 dts:83968 dts_time:1.90404 duration:1024 duration_time:0.02322 stream_index:1
pts:9728 pts_time:0.76 dts:8192 dts_time:0.64 duration:0 duration_time:0 stream_index:0
pts:84992 pts_time:1.92726 dts:84992 dts_time:1.92726 duration:1024 duration_time:0.02322 stream_index:1
pts:86016 pts_time:1.95048 dts:86016 dts_time:1.95048 duration:1024 duration_time:0.02322 stream_index:1
pts:9216 pts_time:0.72 dts:8704 dts_time:0.68 duration:0 duration_time:0 stream_index:0
pts:87040 pts_time:1.9737 dts:87040 dts_time:1.9737 duration:1024 duration_time:0.02322 stream_index:1
pts:10752 pts_time:0.84 dts:9216 dts_time:0.72 duration:0 duration_time:0 stream_index:0
pts:88064 pts_time:1.99692 dts:88064 dts_time:1.99692 duration:1024 duration_time:0.02322 stream_index:1
pts:89088 pts_time:2.02014 dts:89088 dts_time:2.02014 duration:1024 duration_time:0.02322 stream_index:1
pts:10240 pts_time:0.8 dts:9728 dts_time:0.76 duration:0 duration_time:0 stream_index:0
pts:90112 pts_time:2.04336 dts:90112 dts_time:2.04336 duration:1024 duration_time:0.02322 stream_index:1
pts:91136 pts_time:2.06658 dts:91136 dts_time:2.06658 duration:1024 duration_time:0.02322 stream_index:1
pts:11776 pts_time:0.92 dts:10240 dts_time:0.8 duration:0 duration_time:0 stream_index:0
pts:92160 pts_time:2.0898 dts:92160 dts_time:2.0898 duration:1024 duration_time:0.02322 stream_index:1
pts:93184 pts_time:2.11302 dts:93184 dts_time:2.11302 duration:1024 duration_time:0.02322 stream_index:1
pts:11264 pts_time:0.88 dts:10752 dts_time:0.84 duration:0 duration_time:0 stream_index:0
pts:94208 pts_time:2.13624 dts:94208 dts_time:2.13624 duration:1024 duration_time:0.02322 stream_index:1
pts:12288 pts_time:0.96 dts:11264 dts_time:0.88 duration:0 duration_time:0 stream_index:0
pts:95232 pts_time:2.15946 dts:95232 dts_time:2.15946 duration:1024 duration_time:0.02322 stream_index:1
pts:96256 pts_time:2.18268 dts:96256 dts_time:2.18268 duration:1024 duration_time:0.02322 stream_index:1
pts:12800 pts_time:1 dts:11776 dts_time:0.92 duration:0 duration_time:0 stream_index:0
pts:97280 pts_time:2.2059 dts:97280 dts_time:2.2059 duration:1024 duration_time:0.02322 stream_index:1
pts:98304 pts_time:2.22912 dts:98304 dts_time:2.22912 duration:1024 duration_time:0.02322 stream_index:1
pts:13824 pts_time:1.08 dts:12288 dts_time:0.96 duration:0 duration_time:0 stream_index:0
pts:99328 pts_time:2.25234 dts:99328 dts_time:2.25234 duration:1024 duration_time:0.02322 stream_index:1
pts:13312 pts_time:1.04 dts:12800 dts_time:1 duration:0 duration_time:0 stream_index:0
pts:100352 pts_time:2.27556 dts:100352 dts_time:2.27556 duration:1024 duration_time:0.02322 stream_index:1
pts:101376 pts_time:2.29878 dts:101376 dts_time:2.29878 duration:1024 duration_time:0.02322 stream_index:1
pts:14336 pts_time:1.12 dts:13312 dts_time:1.04 duration:0 duration_time:0 stream_index:0
pts:102400 pts_time:2.322 dts:102400 dts_time:2.322 duration:1024 duration_time:0.02322 stream_index:1
pts:103424 pts_time:2.34522 dts:103424 dts_time:2.34522 duration:1024 duration_time:0.02322 stream_index:1
pts:14848 pts_time:1.16 dts:13824 dts_time:1.08 duration:0 duration_time:0 stream_index:0
pts:104448 pts_time:2.36844 dts:104448 dts_time:2.36844 duration:1024 duration_time:0.02322 stream_index:1
pts:105472 pts_time:2.39166 dts:105472 dts_time:2.39166 duration:1024 duration_time:0.02322 stream_index:1
pts:15360 pts_time:1.2 dts:14336 dts_time:1.12 duration:0 duration_time:0 stream_index:0
pts:106496 pts_time:2.41488 dts:106496 dts_time:2.41488 duration:1024 duration_time:0.02322 stream_index:1
pts:15872 pts_time:1.24 dts:14848 dts_time:1.16 duration:0 duration_time:0 stream_index:0
pts:107520 pts_time:2.4381 dts:107520 dts_time:2.4381 duration:1024 duration_time:0.02322 stream_index:1
pts:108544 pts_time:2.46132 dts:108544 dts_time:2.46132 duration:1024 duration_time:0.02322 stream_index:1
pts:16896 pts_time:1.32 dts:15360 dts_time:1.2 duration:0 duration_time:0 stream_index:0
pts:109568 pts_time:2.48454 dts:109568 dts_time:2.48454 duration:1024 duration_time:0.02322 stream_index:1
pts:110592 pts_time:2.50776 dts:110592 dts_time:2.50776 duration:1024 duration_time:0.02322 stream_index:1
pts:16384 pts_time:1.28 dts:15872 dts_time:1.24 duration:0 duration_time:0 stream_index:0
pts:111616 pts_time:2.53098 dts:111616 dts_time:2.53098 duration:1024 duration_time:0.02322 stream_index:1
pts:17920 pts_time:1.4 dts:16384 dts_time:1.28 duration:0 duration_time:0 stream_index:0
pts:112640 pts_time:2.5542 dts:112640 dts_time:2.5542 duration:1024 duration_time:0.02322 stream_index:1
pts:113664 pts_time:2.57741 dts:113664 dts_time:2.57741 duration:1024 duration_time:0.02322 stream_index:1
pts:17408 pts_time:1.36 dts:16896 dts_time:1.32 duration:0 duration_time:0 stream_index:0
pts:114688 pts_time:2.60063 dts:114688 dts_time:2.60063 duration:1024 duration_time:0.02322 stream_index:1
pts:115712 pts_time:2.62385 dts:115712 dts_time:2.62385 duration:1024 duration_time:0.02322 stream_index:1
pts:18432 pts_time:1.44 dts:17408 dts_time:1.36 duration:0 duration_time:0 stream_index:0
pts:116736 pts_time:2.64707 dts:116736 dts_time:2.64707 duration:1024 duration_time:0.02322 stream_index:1
pts:117760 pts_time:2.67029 dts:117760 dts_time:2.67029 duration:1024 duration_time:0.02322 stream_index:1
pts:19456 pts_time:1.52 dts:17920 dts_time:1.4 duration:0 duration_time:0 stream_index:0
pts:118784 pts_time:2.69351 dts:118784 dts_time:2.69351 duration:1024 duration_time:0.02322 stream_index:1
pts:18944 pts_time:1.48 dts:18432 dts_time:1.44 duration:0 duration_time:0 stream_index:0
pts:119808 pts_time:2.71673 dts:119808 dts_time:2.71673 duration:1024 duration_time:0.02322 stream_index:1
pts:120832 pts_time:2.73995 dts:120832 dts_time:2.73995 duration:1024 duration_time:0.02322 stream_index:1
pts:19968 pts_time:1.56 dts:18944 dts_time:1.48 duration:0 duration_time:0 stream_index:0
pts:121856 pts_time:2.76317 dts:121856 dts_time:2.76317 duration:1024 duration_time:0.02322 stream_index:1
pts:122880 pts_time:2.78639 dts:122880 dts_time:2.78639 duration:1024 duration_time:0.02322 stream_index:1
pts:20480 pts_time:1.6 dts:19456 dts_time:1.52 duration:0 duration_time:0 stream_index:0
pts:123904 pts_time:2.80961 dts:123904 dts_time:2.80961 duration:1024 duration_time:0.02322 stream_index:1
pts:124928 pts_time:2.83283 dts:124928 dts_time:2.83283 duration:1024 duration_time:0.02322 stream_index:1
pts:20992 pts_time:1.64 dts:19968 dts_time:1.56 duration:0 duration_time:0 stream_index:0
pts:125952 pts_time:2.85605 dts:125952 dts_time:2.85605 duration:1024 duration_time:0.02322 stream_index:1
pts:21504 pts_time:1.68 dts:20480 dts_time:1.6 duration:0 duration_time:0 stream_index:0
pts:126976 pts_time:2.87927 dts:126976 dts_time:2.87927 duration:1024 duration_time:0.02322 stream_index:1
pts:128000 pts_time:2.90249 dts:128000 dts_time:2.90249 duration:1024 duration_time:0.02322 stream_index:1
pts:22016 pts_time:1.72 dts:20992 dts_time:1.64 duration:0 duration_time:0 stream_index:0
pts:129024 pts_time:2.92571 dts:129024 dts_time:2.92571 duration:1024 duration_time:0.02322 stream_index:1
pts:130048 pts_time:2.94893 dts:130048 dts_time:2.94893 duration:1024 duration_time:0.02322 stream_index:1
pts:22528 pts_time:1.76 dts:21504 dts_time:1.68 duration:0 duration_time:0 stream_index:0
pts:131072 pts_time:2.97215 dts:131072 dts_time:2.97215 duration:1024 duration_time:0.02322 stream_index:1
pts:23040 pts_time:1.8 dts:22016 dts_time:1.72 duration:0 duration_time:0 stream_index:0
pts:132096 pts_time:2.99537 dts:132096 dts_time:2.99537 duration:1024 duration_time:0.02322 stream_index:1
pts:133120 pts_time:3.01859 dts:133120 dts_time:3.01859 duration:1024 duration_time:0.02322 stream_index:1
pts:23552 pts_time:1.84 dts:22528 dts_time:1.76 duration:0 duration_time:0 stream_index:0
pts:134144 pts_time:3.04181 dts:134144 dts_time:3.04181 duration:1024 duration_time:0.02322 stream_index:1
pts:135168 pts_time:3.06503 dts:135168 dts_time:3.06503 duration:1024 duration_time:0.02322 stream_index:1
pts:24064 pts_time:1.88 dts:23040 dts_time:1.8 duration:0 duration_time:0 stream_index:0
pts:136192 pts_time:3.08825 dts:136192 dts_time:3.08825 duration:1024 duration_time:0.02322 stream_index:1
pts:137216 pts_time:3.11147 dts:137216 dts_time:3.11147 duration:1024 duration_time:0.02322 stream_index:1
pts:24576 pts_time:1.92 dts:23552 dts_time:1.84 duration:0 duration_time:0 stream_index:0
pts:138240 pts_time:3.13469 dts:138240 dts_time:3.13469 duration:1024 duration_time:0.02322 stream_index:1
pts:25088 pts_time:1.96 dts:24064 dts_time:1.88 duration:0 duration_time:0 stream_index:0
pts:139264 pts_time:3.15791 dts:139264 dts_time:3.15791 duration:1024 duration_time:0.02322 stream_index:1
pts:140288 pts_time:3.18113 dts:140288 dts_time:3.18113 duration:1024 duration_time:0.02322 stream_index:1
pts:25600 pts_time:2 dts:24576 dts_time:1.92 duration:0 duration_time:0 stream_index:0
pts:141312 pts_time:3.20435 dts:141312 dts_time:3.20435 duration:1024 duration_time:0.02322 stream_index:1
pts:142336 pts_time:3.22757 dts:142336 dts_time:3.22757 duration:1024 duration_time:0.02322 stream_index:1
pts:26112 pts_time:2.04 dts:25088 dts_time:1.96 duration:0 duration_time:0 stream_index:0
pts:143360 pts_time:3.25079 dts:143360 dts_time:3.25079 duration:1024 duration_time:0.02322 stream_index:1
pts:26624 pts_time:2.08 dts:25600 dts_time:2 duration:0 duration_time:0 stream_index:0
pts:144384 pts_time:3.27401 dts:144384 dts_time:3.27401 duration:1024 duration_time:0.02322 stream_index:1
pts:145408 pts_time:3.29723 dts:145408 dts_time:3.29723 duration:1024 duration_time:0.02322 stream_index:1
pts:27136 pts_time:2.12 dts:26112 dts_time:2.04 duration:0 duration_time:0 stream_index:0
pts:146432 pts_time:3.32045 dts:146432 dts_time:3.32045 duration:1024 duration_time:0.02322 stream_index:1
pts:147456 pts_time:3.34367 dts:147456 dts_time:3.34367 duration:1024 duration_time:0.02322 stream_index:1
pts:27648 pts_time:2.16 dts:26624 dts_time:2.08 duration:0 duration_time:0 stream_index:0
pts:148480 pts_time:3.36689 dts:148480 dts_time:3.36689 duration:1024 duration_time:0.02322 stream_index:1
pts:149504 pts_time:3.39011 dts:149504 dts_time:3.39011 duration:1024 duration_time:0.02322 stream_index:1
pts:28160 pts_time:2.2 dts:27136 dts_time:2.12 duration:0 duration_time:0 stream_index:0
pts:150528 pts_time:3.41333 dts:150528 dts_time:3.41333 duration:1024 duration_time:0.02322 stream_index:1
pts:28672 pts_time:2.24 dts:27648 dts_time:2.16 duration:0 duration_time:0 stream_index:0
pts:151552 pts_time:3.43655 dts:151552 dts_time:3.43655 duration:1024 duration_time:0.02322 stream_index:1
pts:152576 pts_time:3.45977 dts:152576 dts_time:3.45977 duration:1024 duration_time:0.02322 stream_index:1
pts:29184 pts_time:2.28 dts:28160 dts_time:2.2 duration:0 duration_time:0 stream_index:0
pts:153600 pts_time:3.48299 dts:153600 dts_time:3.48299 duration:1024 duration_time:0.02322 stream_index:1
pts:154624 pts_time:3.50621 dts:154624 dts_time:3.50621 duration:1024 duration_time:0.02322 stream_index:1
pts:29696 pts_time:2.32 dts:28672 dts_time:2.24 duration:0 duration_time:0 stream_index:0
pts:155648 pts_time:3.52943 dts:155648 dts_time:3.52943 duration:1024 duration_time:0.02322 stream_index:1
pts:156672 pts_time:3.55265 dts:156672 dts_time:3.55265 duration:1024 duration_time:0.02322 stream_index:1
pts:30208 pts_time:2.36 dts:29184 dts_time:2.28 duration:0 duration_time:0 stream_index:0
pts:157696 pts_time:3.57587 dts:157696 dts_time:3.57587 duration:1024 duration_time:0.02322 stream_index:1
pts:30720 pts_time:2.4 dts:29696 dts_time:2.32 duration:0 duration_time:0 stream_index:0
pts:158720 pts_time:3.59909 dts:158720 dts_time:3.59909 duration:1024 duration_time:0.02322 stream_index:1
pts:159744 pts_time:3.62231 dts:159744 dts_time:3.62231 duration:1024 duration_time:0.02322 stream_index:1
pts:31232 pts_time:2.44 dts:30208 dts_time:2.36 duration:0 duration_time:0 stream_index:0
pts:160768 pts_time:3.64553 dts:160768 dts_time:3.64553 duration:1024 duration_time:0.02322 stream_index:1
pts:161792 pts_time:3.66875 dts:161792 dts_time:3.66875 duration:1024 duration_time:0.02322 stream_index:1
pts:31744 pts_time:2.48 dts:30720 dts_time:2.4 duration:0 duration_time:0 stream_index:0
pts:162816 pts_time:3.69197 dts:162816 dts_time:3.69197 duration:1024 duration_time:0.02322 stream_index:1
pts:32256 pts_time:2.52 dts:31232 dts_time:2.44 duration:0 duration_time:0 stream_index:0
pts:163840 pts_time:3.71519 dts:163840 dts_time:3.71519 duration:1024 duration_time:0.02322 stream_index:1
pts:164864 pts_time:3.73841 dts:164864 dts_time:3.73841 duration:1024 duration_time:0.02322 stream_index:1
pts:32768 pts_time:2.56 dts:31744 dts_time:2.48 duration:0 duration_time:0 stream_index:0
pts:165888 pts_time:3.76163 dts:165888 dts_time:3.76163 duration:1024 duration_time:0.02322 stream_index:1
pts:166912 pts_time:3.78485 dts:166912 dts_time:3.78485 duration:1024 duration_time:0.02322 stream_index:1
pts:33280 pts_time:2.6 dts:32256 dts_time:2.52 duration:0 duration_time:0 stream_index:0
pts:167936 pts_time:3.80807 dts:167936 dts_time:3.80807 duration:1024 duration_time:0.02322 stream_index:1
pts:168960 pts_time:3.83129 dts:168960 dts_time:3.83129 duration:1024 duration_time:0.02322 stream_index:1
pts:33792 pts_time:2.64 dts:32768 dts_time:2.56 duration:0 duration_time:0 stream_index:0
pts:169984 pts_time:3.85451 dts:169984 dts_time:3.85451 duration:1024 duration_time:0.02322 stream_index:1
pts:34304 pts_time:2.68 dts:33280 dts_time:2.6 duration:0 duration_time:0 stream_index:0
pts:171008 pts_time:3.87773 dts:171008 dts_time:3.87773 duration:1024 duration_time:0.02322 stream_index:1
pts:172032 pts_time:3.90095 dts:172032 dts_time:3.90095 duration:1024 duration_time:0.02322 stream_index:1
pts:34816 pts_time:2.72 dts:33792 dts_time:2.64 duration:0 duration_time:0 stream_index:0
pts:173056 pts_time:3.92417 dts:173056 dts_time:3.92417 duration:1024 duration_time:0.02322 stream_index:1
pts:174080 pts_time:3.94739 dts:174080 dts_time:3.94739 duration:1024 duration_time:0.02322 stream_index:1
pts:35328 pts_time:2.76 dts:34304 dts_time:2.68 duration:0 duration_time:0 stream_index:0
pts:175104 pts_time:3.97061 dts:175104 dts_time:3.97061 duration:1024 duration_time:0.02322 stream_index:1
pts:35840 pts_time:2.8 dts:34816 dts_time:2.72 duration:0 duration_time:0 stream_index:0
pts:176128 pts_time:3.99383 dts:176128 dts_time:3.99383 duration:1024 duration_time:0.02322 stream_index:1
pts:177152 pts_time:4.01705 dts:177152 dts_time:4.01705 duration:1024 duration_time:0.02322 stream_index:1
pts:36352 pts_time:2.84 dts:35328 dts_time:2.76 duration:0 duration_time:0 stream_index:0
pts:178176 pts_time:4.04027 dts:178176 dts_time:4.04027 duration:1024 duration_time:0.02322 stream_index:1
pts:179200 pts_time:4.06349 dts:179200 dts_time:4.06349 duration:1024 duration_time:0.02322 stream_index:1
pts:36864 pts_time:2.88 dts:35840 dts_time:2.8 duration:0 duration_time:0 stream_index:0
pts:180224 pts_time:4.08671 dts:180224 dts_time:4.08671 duration:1024 duration_time:0.02322 stream_index:1
pts:181248 pts_time:4.10993 dts:181248 dts_time:4.10993 duration:1024 duration_time:0.02322 stream_index:1
pts:37888 pts_time:2.96 dts:36352 dts_time:2.84 duration:0 duration_time:0 stream_index:0
pts:182272 pts_time:4.13315 dts:182272 dts_time:4.13315 duration:1024 duration_time:0.02322 stream_index:1
pts:37376 pts_time:2.92 dts:36864 dts_time:2.88 duration:0 duration_time:0 stream_index:0
pts:183296 pts_time:4.15637 dts:183296 dts_time:4.15637 duration:1024 duration_time:0.02322 stream_index:1
pts:184320 pts_time:4.17959 dts:184320 dts_time:4.17959 duration:1024 duration_time:0.02322 stream_index:1
pts:38400 pts_time:3 dts:37376 dts_time:2.92 duration:0 duration_time:0 stream_index:0
pts:185344 pts_time:4.20281 dts:185344 dts_time:4.20281 duration:1024 duration_time:0.02322 stream_index:1
pts:186368 pts_time:4.22603 dts:186368 dts_time:4.22603 duration:1024 duration_time:0.02322 stream_index:1
pts:38912 pts_time:3.04 dts:37888 dts_time:2.96 duration:0 duration_time:0 stream_index:0
pts:187392 pts_time:4.24925 dts:187392 dts_time:4.24925 duration:1024 duration_time:0.02322 stream_index:1
pts:188416 pts_time:4.27247 dts:188416 dts_time:4.27247 duration:1024 duration_time:0.02322 stream_index:1
pts:39424 pts_time:3.08 dts:38400 dts_time:3 duration:0 duration_time:0 stream_index:0
pts:189440 pts_time:4.29569 dts:189440 dts_time:4.29569 duration:1024 duration_time:0.02322 stream_index:1
pts:39936 pts_time:3.12 dts:38912 dts_time:3.04 duration:0 duration_time:0 stream_index:0
pts:190464 pts_time:4.31891 dts:190464 dts_time:4.31891 duration:1024 duration_time:0.02322 stream_index:1
pts:191488 pts_time:4.34213 dts:191488 dts_time:4.34213 duration:1024 duration_time:0.02322 stream_index:1
pts:40448 pts_time:3.16 dts:39424 dts_time:3.08 duration:0 duration_time:0 stream_index:0
pts:192512 pts_time:4.36535 dts:192512 dts_time:4.36535 duration:1024 duration_time:0.02322 stream_index:1
pts:193536 pts_time:4.38857 dts:193536 dts_time:4.38857 duration:1024 duration_time:0.02322 stream_index:1
pts:40960 pts_time:3.2 dts:39936 dts_time:3.12 duration:0 duration_time:0 stream_index:0
pts:194560 pts_time:4.41179 dts:194560 dts_time:4.41179 duration:1024 duration_time:0.02322 stream_index:1
pts:41472 pts_time:3.24 dts:40448 dts_time:3.16 duration:0 duration_time:0 stream_index:0
pts:195584 pts_time:4.43501 dts:195584 dts_time:4.43501 duration:1024 duration_time:0.02322 stream_index:1
pts:196608 pts_time:4.45823 dts:196608 dts_time:4.45823 duration:1024 duration_time:0.02322 stream_index:1
pts:41984 pts_time:3.28 dts:40960 dts_time:3.2 duration:0 duration_time:0 stream_index:0
pts:197632 pts_time:4.48145 dts:197632 dts_time:4.48145 duration:1024 duration_time:0.02322 stream_index:1
pts:198656 pts_time:4.50467 dts:198656 dts_time:4.50467 duration:1024 duration_time:0.02322 stream_index:1
pts:42496 pts_time:3.32 dts:41472 dts_time:3.24 duration:0 duration_time:0 stream_index:0
pts:199680 pts_time:4.52789 dts:199680 dts_time:4.52789 duration:1024 duration_time:0.02322 stream_index:1
pts:200704 pts_time:4.55111 dts:200704 dts_time:4.55111 duration:1024 duration_time:0.02322 stream_index:1
pts:43008 pts_time:3.36 dts:41984 dts_time:3.28 duration:0 duration_time:0 stream_index:0
pts:201728 pts_time:4.57433 dts:201728 dts_time:4.57433 duration:1024 duration_time:0.02322 stream_index:1
pts:43520 pts_time:3.4 dts:42496 dts_time:3.32 duration:0 duration_time:0 stream_index:0
pts:202752 pts_time:4.59755 dts:202752 dts_time:4.59755 duration:1024 duration_time:0.02322 stream_index:1
pts:203776 pts_time:4.62077 dts:203776 dts_time:4.62077 duration:1024 duration_time:0.02322 stream_index:1
pts:44032 pts_time:3.44 dts:43008 dts_time:3.36 duration:0 duration_time:0 stream_index:0
pts:204800 pts_time:4.64399 dts:204800 dts_time:4.64399 duration:1024 duration_time:0.02322 stream_index:1
pts:205824 pts_time:4.66721 dts:205824 dts_time:4.66721 duration:1024 duration_time:0.02322 stream_index:1
pts:44544 pts_time:3.48 dts:43520 dts_time:3.4 duration:0 duration_time:0 stream_index:0
pts:206848 pts_time:4.69043 dts:206848 dts_time:4.69043 duration:1024 duration_time:0.02322 stream_index:1
pts:45056 pts_time:3.52 dts:44032 dts_time:3.44 duration:0 duration_time:0 stream_index:0
pts:207872 pts_time:4.71365 dts:207872 dts_time:4.71365 duration:1024 duration_time:0.02322 stream_index:1
pts:208896 pts_time:4.73687 dts:208896 dts_time:4.73687 duration:1024 duration_time:0.02322 stream_index:1
pts:45568 pts_time:3.56 dts:44544 dts_time:3.48 duration:0 duration_time:0 stream_index:0
pts:209920 pts_time:4.76009 dts:209920 dts_time:4.76009 duration:1024 duration_time:0.02322 stream_index:1
pts:210944 pts_time:4.78331 dts:210944 dts_time:4.78331 duration:1024 duration_time:0.02322 stream_index:1
pts:46080 pts_time:3.6 dts:45056 dts_time:3.52 duration:0 duration_time:0 stream_index:0
pts:211968 pts_time:4.80653 dts:211968 dts_time:4.80653 duration:1024 duration_time:0.02322 stream_index:1
pts:212992 pts_time:4.82975 dts:212992 dts_time:4.82975 duration:1024 duration_time:0.02322 stream_index:1
pts:46592 pts_time:3.64 dts:45568 dts_time:3.56 duration:0 duration_time:0 stream_index:0
pts:214016 pts_time:4.85297 dts:214016 dts_time:4.85297 duration:1024 duration_time:0.02322 stream_index:1
pts:47104 pts_time:3.68 dts:46080 dts_time:3.6 duration:0 duration_time:0 stream_index:0
pts:215040 pts_time:4.87619 dts:215040 dts_time:4.87619 duration:1024 duration_time:0.02322 stream_index:1
pts:216064 pts_time:4.89941 dts:216064 dts_time:4.89941 duration:1024 duration_time:0.02322 stream_index:1
pts:47616 pts_time:3.72 dts:46592 dts_time:3.64 duration:0 duration_time:0 stream_index:0
pts:217088 pts_time:4.92263 dts:217088 dts_time:4.92263 duration:1024 duration_time:0.02322 stream_index:1
pts:218112 pts_time:4.94585 dts:218112 dts_time:4.94585 duration:1024 duration_time:0.02322 stream_index:1
pts:48128 pts_time:3.76 dts:47104 dts_time:3.68 duration:0 duration_time:0 stream_index:0
pts:219136 pts_time:4.96907 dts:219136 dts_time:4.96907 duration:1024 duration_time:0.02322 stream_index:1
pts:220160 pts_time:4.99229 dts:220160 dts_time:4.99229 duration:1024 duration_time:0.02322 stream_index:1
pts:48640 pts_time:3.8 dts:47616 dts_time:3.72 duration:0 duration_time:0 stream_index:0
pts:221184 pts_time:5.01551 dts:221184 dts_time:5.01551 duration:1024 duration_time:0.02322 stream_index:1
pts:49152 pts_time:3.84 dts:48128 dts_time:3.76 duration:0 duration_time:0 stream_index:0
pts:222208 pts_time:5.03873 dts:222208 dts_time:5.03873 duration:1024 duration_time:0.02322 stream_index:1
pts:223232 pts_time:5.06195 dts:223232 dts_time:5.06195 duration:1024 duration_time:0.02322 stream_index:1
pts:51200 pts_time:4 dts:48640 dts_time:3.8 duration:0 duration_time:0 stream_index:0
pts:224256 pts_time:5.08517 dts:224256 dts_time:5.08517 duration:1024 duration_time:0.02322 stream_index:1
pts:225280 pts_time:5.10839 dts:225280 dts_time:5.10839 duration:1024 duration_time:0.02322 stream_index:1
pts:50176 pts_time:3.92 dts:49152 dts_time:3.84 duration:0 duration_time:0 stream_index:0
pts:226304 pts_time:5.13161 dts:226304 dts_time:5.13161 duration:1024 duration_time:0.02322 stream_index:1
pts:49664 pts_time:3.88 dts:49664 dts_time:3.88 duration:0 duration_time:0 stream_index:0
pts:227328 pts_time:5.15483 dts:227328 dts_time:5.15483 duration:1024 duration_time:0.02322 stream_index:1
pts:228352 pts_time:5.17805 dts:228352 dts_time:5.17805 duration:1024 duration_time:0.02322 stream_index:1
pts:50688 pts_time:3.96 dts:50176 dts_time:3.92 duration:0 duration_time:0 stream_index:0
pts:229376 pts_time:5.20127 dts:229376 dts_time:5.20127 duration:1024 duration_time:0.02322 stream_index:1
pts:230400 pts_time:5.22449 dts:230400 dts_time:5.22449 duration:1024 duration_time:0.02322 stream_index:1
pts:51712 pts_time:4.04 dts:50688 dts_time:3.96 duration:0 duration_time:0 stream_index:0
pts:231424 pts_time:5.24771 dts:231424 dts_time:5.24771 duration:1024 duration_time:0.02322 stream_index:1
pts:232448 pts_time:5.27093 dts:232448 dts_time:5.27093 duration:1024 duration_time:0.02322 stream_index:1
pts:52736 pts_time:4.12 dts:51200 dts_time:4 duration:0 duration_time:0 stream_index:0
pts:233472 pts_time:5.29415 dts:233472 dts_time:5.29415 duration:1024 duration_time:0.02322 stream_index:1
pts:52224 pts_time:4.08 dts:51712 dts_time:4.04 duration:0 duration_time:0 stream_index:0
pts:234496 pts_time:5.31737 dts:234496 dts_time:5.31737 duration:1024 duration_time:0.02322 stream_index:1
pts:235520 pts_time:5.34059 dts:235520 dts_time:5.34059 duration:1024 duration_time:0.02322 stream_index:1
pts:54784 pts_time:4.28 dts:52224 dts_time:4.08 duration:0 duration_time:0 stream_index:0
pts:236544 pts_time:5.36381 dts:236544 dts_time:5.36381 duration:1024 duration_time:0.02322 stream_index:1
pts:237568 pts_time:5.38703 dts:237568 dts_time:5.38703 duration:1024 duration_time:0.02322 stream_index:1
pts:53760 pts_time:4.2 dts:52736 dts_time:4.12 duration:0 duration_time:0 stream_index:0
pts:238592 pts_time:5.41025 dts:238592 dts_time:5.41025 duration:1024 duration_time:0.02322 stream_index:1
pts:239616 pts_time:5.43347 dts:239616 dts_time:5.43347 duration:1024 duration_time:0.02322 stream_index:1
pts:53248 pts_time:4.16 dts:53248 dts_time:4.16 duration:0 duration_time:0 stream_index:0
pts:240640 pts_time:5.45669 dts:240640 dts_time:5.45669 duration:1024 duration_time:0.02322 stream_index:1
pts:54272 pts_time:4.24 dts:53760 dts_time:4.2 duration:0 duration_time:0 stream_index:0
pts:241664 pts_time:5.47991 dts:241664 dts_time:5.47991 duration:1024 duration_time:0.02322 stream_index:1
pts:242688 pts_time:5.50313 dts:242688 dts_time:5.50313 duration:1024 duration_time:0.02322 stream_index:1
pts:55808 pts_time:4.36 dts:54272 dts_time:4.24 duration:0 duration_time:0 stream_index:0
pts:243712 pts_time:5.52635 dts:243712 dts_time:5.52635 duration:1024 duration_time:0.02322 stream_index:1
pts:244736 pts_time:5.54957 dts:244736 dts_time:5.54957 duration:1024 duration_time:0.02322 stream_index:1
pts:55296 pts_time:4.32 dts:54784 dts_time:4.28 duration:0 duration_time:0 stream_index:0
pts:245760 pts_time:5.57279 dts:245760 dts_time:5.57279 duration:1024 duration_time:0.02322 stream_index:1
pts:56832 pts_time:4.44 dts:55296 dts_time:4.32 duration:0 duration_time:0 stream_index:0
pts:246784 pts_time:5.59601 dts:246784 dts_time:5.59601 duration:1024 duration_time:0.02322 stream_index:1
pts:247808 pts_time:5.61923 dts:247808 dts_time:5.61923 duration:1024 duration_time:0.02322 stream_index:1
pts:56320 pts_time:4.4 dts:55808 dts_time:4.36 duration:0 duration_time:0 stream_index:0
pts:248832 pts_time:5.64245 dts:248832 dts_time:5.64245 duration:1024 duration_time:0.02322 stream_index:1
pts:249856 pts_time:5.66567 dts:249856 dts_time:5.66567 duration:1024 duration_time:0.02322 stream_index:1
pts:57344 pts_time:4.48 dts:56320 dts_time:4.4 duration:0 duration_time:0 stream_index:0
pts:250880 pts_time:5.68889 dts:250880 dts_time:5.68889 duration:1024 duration_time:0.02322 stream_index:1
pts:251904 pts_time:5.71211 dts:251904 dts_time:5.71211 duration:1024 duration_time:0.02322 stream_index:1
pts:57856 pts_time:4.52 dts:56832 dts_time:4.44 duration:0 duration_time:0 stream_index:0
pts:252928 pts_time:5.73533 dts:252928 dts_time:5.73533 duration:1024 duration_time:0.02322 stream_index:1
pts:58368 pts_time:4.56 dts:57344 dts_time:4.48 duration:0 duration_time:0 stream_index:0
pts:253952 pts_time:5.75855 dts:253952 dts_time:5.75855 duration:1024 duration_time:0.02322 stream_index:1
pts:254976 pts_time:5.78177 dts:254976 dts_time:5.78177 duration:1024 duration_time:0.02322 stream_index:1
pts:59392 pts_time:4.64 dts:57856 dts_time:4.52 duration:0 duration_time:0 stream_index:0
pts:256000 pts_time:5.80499 dts:256000 dts_time:5.80499 duration:1024 duration_time:0.02322 stream_index:1
pts:257024 pts_time:5.82821 dts:257024 dts_time:5.82821 duration:1024 duration_time:0.02322 stream_index:1
pts:58880 pts_time:4.6 dts:58368 dts_time:4.56 duration:0 duration_time:0 stream_index:0
pts:258048 pts_time:5.85143 dts:258048 dts_time:5.85143 duration:1024 duration_time:0.02322 stream_index:1
pts:59904 pts_time:4.68 dts:58880 dts_time:4.6 duration:0 duration_time:0 stream_index:0
pts:259072 pts_time:5.87465 dts:259072 dts_time:5.87465 duration:1024 duration_time:0.02322 stream_index:1
pts:260096 pts_time:5.89787 dts:260096 dts_time:5.89787 duration:1024 duration_time:0.02322 stream_index:1
pts:60416 pts_time:4.72 dts:59392 dts_time:4.64 duration:0 duration_time:0 stream_index:0
pts:261120 pts_time:5.92109 dts:261120 dts_time:5.92109 duration:1024 duration_time:0.02322 stream_index:1
pts:262144 pts_time:5.94431 dts:262144 dts_time:5.94431 duration:1024 duration_time:0.02322 stream_index:1
pts:60928 pts_time:4.76 dts:59904 dts_time:4.68 duration:0 duration_time:0 stream_index:0
pts:263168 pts_time:5.96753 dts:263168 dts_time:5.96753 duration:1024 duration_time:0.02322 stream_index:1
pts:264192 pts_time:5.99075 dts:264192 dts_time:5.99075 duration:1024 duration_time:0.02322 stream_index:1
pts:61952 pts_time:4.84 dts:60416 dts_time:4.72 duration:0 duration_time:0 stream_index:0
pts:265216 pts_time:6.01397 dts:265216 dts_time:6.01397 duration:1024 duration_time:0.02322 stream_index:1
pts:61440 pts_time:4.8 dts:60928 dts_time:4.76 duration:0 duration_time:0 stream_index:0
pts:266240 pts_time:6.03719 dts:266240 dts_time:6.03719 duration:1024 duration_time:0.02322 stream_index:1
pts:267264 pts_time:6.06041 dts:267264 dts_time:6.06041 duration:1024 duration_time:0.02322 stream_index:1
pts:62976 pts_time:4.92 dts:61440 dts_time:4.8 duration:0 duration_time:0 stream_index:0
pts:268288 pts_time:6.08363 dts:268288 dts_time:6.08363 duration:1024 duration_time:0.02322 stream_index:1
pts:269312 pts_time:6.10685 dts:269312 dts_time:6.10685 duration:1024 duration_time:0.02322 stream_index:1
pts:62464 pts_time:4.88 dts:61952 dts_time:4.84 duration:0 duration_time:0 stream_index:0
pts:270336 pts_time:6.13007 dts:270336 dts_time:6.13007 duration:1024 duration_time:0.02322 stream_index:1
pts:271360 pts_time:6.15329 dts:271360 dts_time:6.15329 duration:1024 duration_time:0.02322 stream_index:1
pts:63488 pts_time:4.96 dts:62464 dts_time:4.88 duration:0 duration_time:0 stream_index:0
pts:272384 pts_time:6.17651 dts:272384 dts_time:6.17651 duration:1024 duration_time:0.02322 stream_index:1
pts:64000 pts_time:5 dts:62976 dts_time:4.92 duration:0 duration_time:0 stream_index:0
pts:273408 pts_time:6.19973 dts:273408 dts_time:6.19973 duration:1024 duration_time:0.02322 stream_index:1
pts:274432 pts_time:6.22295 dts:274432 dts_time:6.22295 duration:1024 duration_time:0.02322 stream_index:1
pts:65024 pts_time:5.08 dts:63488 dts_time:4.96 duration:0 duration_time:0 stream_index:0
pts:275456 pts_time:6.24617 dts:275456 dts_time:6.24617 duration:1024 duration_time:0.02322 stream_index:1
pts:276480 pts_time:6.26939 dts:276480 dts_time:6.26939 duration:1024 duration_time:0.02322 stream_index:1
pts:64512 pts_time:5.04 dts:64000 dts_time:5 duration:0 duration_time:0 stream_index:0
pts:277504 pts_time:6.29261 dts:277504 dts_time:6.29261 duration:1024 duration_time:0.02322 stream_index:1
pts:65536 pts_time:5.12 dts:64512 dts_time:5.04 duration:0 duration_time:0 stream_index:0
pts:278528 pts_time:6.31583 dts:278528 dts_time:6.31583 duration:1024 duration_time:0.02322 stream_index:1
pts:279552 pts_time:6.33905 dts:279552 dts_time:6.33905 duration:1024 duration_time:0.02322 stream_index:1
pts:66048 pts_time:5.16 dts:65024 dts_time:5.08 duration:0 duration_time:0 stream_index:0
pts:280576 pts_time:6.36227 dts:280576 dts_time:6.36227 duration:1024 duration_time:0.02322 stream_index:1
pts:281600 pts_time:6.38549 dts:281600 dts_time:6.38549 duration:1024 duration_time:0.02322 stream_index:1
pts:68096 pts_time:5.32 dts:65536 dts_time:5.12 duration:0 duration_time:0 stream_index:0
pts:282624 pts_time:6.40871 dts:282624 dts_time:6.40871 duration:1024 duration_time:0.02322 stream_index:1
pts:283648 pts_time:6.43193 dts:283648 dts_time:6.43193 duration:1024 duration_time:0.02322 stream_index:1
pts:67072 pts_time:5.24 dts:66048 dts_time:5.16 duration:0 duration_time:0 stream_index:0
pts:284672 pts_time:6.45515 dts:284672 dts_time:6.45515 duration:1024 duration_time:0.02322 stream_index:1
pts:66560 pts_time:5.2 dts:66560 dts_time:5.2 duration:0 duration_time:0 stream_index:0
pts:285696 pts_time:6.47837 dts:285696 dts_time:6.47837 duration:1024 duration_time:0.02322 stream_index:1
pts:286720 pts_time:6.50159 dts:286720 dts_time:6.50159 duration:1024 duration_time:0.02322 stream_index:1
pts:67584 pts_time:5.28 dts:67072 dts_time:5.24 duration:0 duration_time:0 stream_index:0
pts:287744 pts_time:6.52481 dts:287744 dts_time:6.52481 duration:1024 duration_time:0.02322 stream_index:1
pts:288768 pts_time:6.54803 dts:288768 dts_time:6.54803 duration:1024 duration_time:0.02322 stream_index:1
pts:69632 pts_time:5.44 dts:67584 dts_time:5.28 duration:0 duration_time:0 stream_index:0
pts:289792 pts_time:6.57125 dts:289792 dts_time:6.57125 duration:1024 duration_time:0.02322 stream_index:1
pts:68608 pts_time:5.36 dts:68096 dts_time:5.32 duration:0 duration_time:0 stream_index:0
pts:290816 pts_time:6.59447 dts:290816 dts_time:6.59447 duration:1024 duration_time:0.02322 stream_index:1
pts:291840 pts_time:6.61769 dts:291840 dts_time:6.61769 duration:1024 duration_time:0.02322 stream_index:1
pts:69120 pts_time:5.4 dts:68608 dts_time:5.36 duration:0 duration_time:0 stream_index:0
pts:292864 pts_time:6.64091 dts:292864 dts_time:6.64091 duration:1024 duration_time:0.02322 stream_index:1
pts:293888 pts_time:6.66413 dts:293888 dts_time:6.66413 duration:1024 duration_time:0.02322 stream_index:1
pts:70144 pts_time:5.48 dts:69120 dts_time:5.4 duration:0 duration_time:0 stream_index:0
pts:294912 pts_time:6.68735 dts:294912 dts_time:6.68735 duration:1024 duration_time:0.02322 stream_index:1
pts:295936 pts_time:6.71057 dts:295936 dts_time:6.71057 duration:1024 duration_time:0.02322 stream_index:1
pts:70656 pts_time:5.52 dts:69632 dts_time:5.44 duration:0 duration_time:0 stream_index:0
pts:296960 pts_time:6.73379 dts:296960 dts_time:6.73379 duration:1024 duration_time:0.02322 stream_index:1
pts:71168 pts_time:5.56 dts:70144 dts_time:5.48 duration:0 duration_time:0 stream_index:0
pts:297984 pts_time:6.75701 dts:297984 dts_time:6.75701 duration:1024 duration_time:0.02322 stream_index:1
pts:299008 pts_time:6.78023 dts:299008 dts_time:6.78023 duration:1024 duration_time:0.02322 stream_index:1
pts:71680 pts_time:5.6 dts:70656 dts_time:5.52 duration:0 duration_time:0 stream_index:0
pts:300032 pts_time:6.80345 dts:300032 dts_time:6.80345 duration:1024 duration_time:0.02322 stream_index:1
pts:301056 pts_time:6.82667 dts:301056 dts_time:6.82667 duration:1024 duration_time:0.02322 stream_index:1
pts:72192 pts_time:5.64 dts:71168 dts_time:5.56 duration:0 duration_time:0 stream_index:0
pts:302080 pts_time:6.84989 dts:302080 dts_time:6.84989 duration:1024 duration_time:0.02322 stream_index:1
pts:303104 pts_time:6.87311 dts:303104 dts_time:6.87311 duration:1024 duration_time:0.02322 stream_index:1
pts:72704 pts_time:5.68 dts:71680 dts_time:5.6 duration:0 duration_time:0 stream_index:0
pts:304128 pts_time:6.89633 dts:304128 dts_time:6.89633 duration:1024 duration_time:0.02322 stream_index:1
pts:73216 pts_time:5.72 dts:72192 dts_time:5.64 duration:0 duration_time:0 stream_index:0
pts:305152 pts_time:6.91955 dts:305152 dts_time:6.91955 duration:1024 duration_time:0.02322 stream_index:1
pts:306176 pts_time:6.94277 dts:306176 dts_time:6.94277 duration:1024 duration_time:0.02322 stream_index:1
pts:74240 pts_time:5.8 dts:72704 dts_time:5.68 duration:0 duration_time:0 stream_index:0
pts:307200 pts_time:6.96599 dts:307200 dts_time:6.96599 duration:1024 duration_time:0.02322 stream_index:1
pts:308224 pts_time:6.98921 dts:308224 dts_time:6.98921 duration:1024 duration_time:0.02322 stream_index:1
pts:73728 pts_time:5.76 dts:73216 dts_time:5.72 duration:0 duration_time:0 stream_index:0
pts:309248 pts_time:7.01243 dts:309248 dts_time:7.01243 duration:1024 duration_time:0.02322 stream_index:1
pts:75264 pts_time:5.88 dts:73728 dts_time:5.76 duration:0 duration_time:0 stream_index:0
pts:310272 pts_time:7.03565 dts:310272 dts_time:7.03565 duration:1024 duration_time:0.02322 stream_index:1
pts:311296 pts_time:7.05887 dts:311296 dts_time:7.05887 duration:1024 duration_time:0.02322 stream_index:1
pts:74752 pts_time:5.84 dts:74240 dts_time:5.8 duration:0 duration_time:0 stream_index:0
pts:312320 pts_time:7.08209 dts:312320 dts_time:7.08209 duration:1024 duration_time:0.02322 stream_index:1
pts:313344 pts_time:7.10531 dts:313344 dts_time:7.10531 duration:1024 duration_time:0.02322 stream_index:1
pts:75776 pts_time:5.92 dts:74752 dts_time:5.84 duration:0 duration_time:0 stream_index:0
pts:314368 pts_time:7.12853 dts:314368 dts_time:7.12853 duration:1024 duration_time:0.02322 stream_index:1
pts:315392 pts_time:7.15175 dts:315392 dts_time:7.15175 duration:1024 duration_time:0.02322 stream_index:1
pts:76288 pts_time:5.96 dts:75264 dts_time:5.88 duration:0 duration_time:0 stream_index:0
pts:316416 pts_time:7.17497 dts:316416 dts_time:7.17497 duration:1024 duration_time:0.02322 stream_index:1
pts:78336 pts_time:6.12 dts:75776 dts_time:5.92 duration:0 duration_time:0 stream_index:0
pts:317440 pts_time:7.19819 dts:317440 dts_time:7.19819 duration:1024 duration_time:0.02322 stream_index:1
pts:318464 pts_time:7.22141 dts:318464 dts_time:7.22141 duration:1024 duration_time:0.02322 stream_index:1
pts:77312 pts_time:6.04 dts:76288 dts_time:5.96 duration:0 duration_time:0 stream_index:0
pts:319488 pts_time:7.24463 dts:319488 dts_time:7.24463 duration:1024 duration_time:0.02322 stream_index:1
pts:320512 pts_time:7.26785 dts:320512 dts_time:7.26785 duration:1024 duration_time:0.02322 stream_index:1
pts:76800 pts_time:6 dts:76800 dts_time:6 duration:0 duration_time:0 stream_index:0
pts:321536 pts_time:7.29107 dts:321536 dts_time:7.29107 duration:1024 duration_time:0.02322 stream_index:1
pts:77824 pts_time:6.08 dts:77312 dts_time:6.04 duration:0 duration_time:0 stream_index:0
pts:322560 pts_time:7.31429 dts:322560 dts_time:7.31429 duration:1024 duration_time:0.02322 stream_index:1
pts:323584 pts_time:7.33751 dts:323584 dts_time:7.33751 duration:1024 duration_time:0.02322 stream_index:1
pts:79360 pts_time:6.2 dts:77824 dts_time:6.08 duration:0 duration_time:0 stream_index:0
pts:324608 pts_time:7.36073 dts:324608 dts_time:7.36073 duration:1024 duration_time:0.02322 stream_index:1
pts:325632 pts_time:7.38395 dts:325632 dts_time:7.38395 duration:1024 duration_time:0.02322 stream_index:1
pts:78848 pts_time:6.16 dts:78336 dts_time:6.12 duration:0 duration_time:0 stream_index:0
pts:326656 pts_time:7.40717 dts:326656 dts_time:7.40717 duration:1024 duration_time:0.02322 stream_index:1
pts:327680 pts_time:7.43039 dts:327680 dts_time:7.43039 duration:1024 duration_time:0.02322 stream_index:1
pts:80384 pts_time:6.28 dts:78848 dts_time:6.16 duration:0 duration_time:0 stream_index:0
pts:328704 pts_time:7.45361 dts:328704 dts_time:7.45361 duration:1024 duration_time:0.02322 stream_index:1
pts:79872 pts_time:6.24 dts:79360 dts_time:6.2 duration:0 duration_time:0 stream_index:0
pts:329728 pts_time:7.47683 dts:329728 dts_time:7.47683 duration:1024 duration_time:0.02322 stream_index:1
pts:330752 pts_time:7.50005 dts:330752 dts_time:7.50005 duration:1024 duration_time:0.02322 stream_index:1
pts:81408 pts_time:6.36 dts:79872 dts_time:6.24 duration:0 duration_time:0 stream_index:0
pts:331776 pts_time:7.52327 dts:331776 dts_time:7.52327 duration:1024 duration_time:0.02322 stream_index:1
pts:332800 pts_time:7.54649 dts:332800 dts_time:7.54649 duration:1024 duration_time:0.02322 stream_index:1
pts:80896 pts_time:6.32 dts:80384 dts_time:6.28 duration:0 duration_time:0 stream_index:0
pts:333824 pts_time:7.56971 dts:333824 dts_time:7.56971 duration:1024 duration_time:0.02322 stream_index:1
pts:334848 pts_time:7.59293 dts:334848 dts_time:7.59293 duration:1024 duration_time:0.02322 stream_index:1
pts:81920 pts_time:6.4 dts:80896 dts_time:6.32 duration:0 duration_time:0 stream_index:0
pts:335872 pts_time:7.61615 dts:335872 dts_time:7.61615 duration:1024 duration_time:0.02322 stream_index:1
pts:82432 pts_time:6.44 dts:81408 dts_time:6.36 duration:0 duration_time:0 stream_index:0
pts:336896 pts_time:7.63937 dts:336896 dts_time:7.63937 duration:1024 duration_time:0.02322 stream_index:1
pts:337920 pts_time:7.66259 dts:337920 dts_time:7.66259 duration:1024 duration_time:0.02322 stream_index:1
pts:83456 pts_time:6.52 dts:81920 dts_time:6.4 duration:0 duration_time:0 stream_index:0
pts:338944 pts_time:7.6858 dts:338944 dts_time:7.6858 duration:1024 duration_time:0.02322 stream_index:1
pts:339968 pts_time:7.70902 dts:339968 dts_time:7.70902 duration:1024 duration_time:0.02322 stream_index:1
pts:82944 pts_time:6.48 dts:82432 dts_time:6.44 duration:0 duration_time:0 stream_index:0
pts:340992 pts_time:7.73224 dts:340992 dts_time:7.73224 duration:1024 duration_time:0.02322 stream_index:1
pts:84480 pts_time:6.6 dts:82944 dts_time:6.48 duration:0 duration_time:0 stream_index:0
pts:342016 pts_time:7.75546 dts:342016 dts_time:7.75546 duration:1024 duration_time:0.02322 stream_index:1
pts:343040 pts_time:7.77868 dts:343040 dts_time:7.77868 duration:1024 duration_time:0.02322 stream_index:1
pts:83968 pts_time:6.56 dts:83456 dts_time:6.52 duration:0 duration_time:0 stream_index:0
pts:344064 pts_time:7.8019 dts:344064 dts_time:7.8019 duration:1024 duration_time:0.02322 stream_index:1
pts:345088 pts_time:7.82512 dts:345088 dts_time:7.82512 duration:1024 duration_time:0.02322 stream_index:1
pts:84992 pts_time:6.64 dts:83968 dts_time:6.56 duration:0 duration_time:0 stream_index:0
pts:346112 pts_time:7.84834 dts:346112 dts_time:7.84834 duration:1024 duration_time:0.02322 stream_index:1
pts:347136 pts_time:7.87156 dts:347136 dts_time:7.87156 duration:1024 duration_time:0.02322 stream_index:1
pts:85504 pts_time:6.68 dts:84480 dts_time:6.6 duration:0 duration_time:0 stream_index:0
pts:348160 pts_time:7.89478 dts:348160 dts_time:7.89478 duration:1024 duration_time:0.02322 stream_index:1
pts:86528 pts_time:6.76 dts:84992 dts_time:6.64 duration:0 duration_time:0 stream_index:0
pts:349184 pts_time:7.918 dts:349184 dts_time:7.918 duration:1024 duration_time:0.02322 stream_index:1
pts:350208 pts_time:7.94122 dts:350208 dts_time:7.94122 duration:1024 duration_time:0.02322 stream_index:1
pts:86016 pts_time:6.72 dts:85504 dts_time:6.68 duration:0 duration_time:0 stream_index:0
pts:351232 pts_time:7.96444 dts:351232 dts_time:7.96444 duration:1024 duration_time:0.02322 stream_index:1
pts:352256 pts_time:7.98766 dts:352256 dts_time:7.98766 duration:1024 duration_time:0.02322 stream_index:1
pts:88064 pts_time:6.88 dts:86016 dts_time:6.72 duration:0 duration_time:0 stream_index:0
pts:353280 pts_time:8.01088 dts:353280 dts_time:8.01088 duration:1024 duration_time:0.02322 stream_index:1
pts:87040 pts_time:6.8 dts:86528 dts_time:6.76 duration:0 duration_time:0 stream_index:0
pts:354304 pts_time:8.0341 dts:354304 dts_time:8.0341 duration:1024 duration_time:0.02322 stream_index:1
pts:355328 pts_time:8.05732 dts:355328 dts_time:8.05732 duration:1024 duration_time:0.02322 stream_index:1
pts:87552 pts_time:6.84 dts:87040 dts_time:6.8 duration:0 duration_time:0 stream_index:0
pts:356352 pts_time:8.08054 dts:356352 dts_time:8.08054 duration:1024 duration_time:0.02322 stream_index:1
pts:357376 pts_time:8.10376 dts:357376 dts_time:8.10376 duration:1024 duration_time:0.02322 stream_index:1
pts:88576 pts_time:6.92 dts:87552 dts_time:6.84 duration:0 duration_time:0 stream_index:0
pts:358400 pts_time:8.12698 dts:358400 dts_time:8.12698 duration:1024 duration_time:0.02322 stream_index:1
pts:359424 pts_time:8.1502 dts:359424 dts_time:8.1502 duration:1024 duration_time:0.02322 stream_index:1
pts:89088 pts_time:6.96 dts:88064 dts_time:6.88 duration:0 duration_time:0 stream_index:0
pts:360448 pts_time:8.17342 dts:360448 dts_time:8.17342 duration:1024 duration_time:0.02322 stream_index:1
pts:90112 pts_time:7.04 dts:88576 dts_time:6.92 duration:0 duration_time:0 stream_index:0
pts:361472 pts_time:8.19664 dts:361472 dts_time:8.19664 duration:1024 duration_time:0.02322 stream_index:1
pts:362496 pts_time:8.21986 dts:362496 dts_time:8.21986 duration:1024 duration_time:0.02322 stream_index:1
pts:89600 pts_time:7 dts:89088 dts_time:6.96 duration:0 duration_time:0 stream_index:0
pts:363520 pts_time:8.24308 dts:363520 dts_time:8.24308 duration:1024 duration_time:0.02322 stream_index:1
pts:364544 pts_time:8.2663 dts:364544 dts_time:8.2663 duration:1024 duration_time:0.02322 stream_index:1
pts:91136 pts_time:7.12 dts:89600 dts_time:7 duration:0 duration_time:0 stream_index:0
pts:365568 pts_time:8.28952 dts:365568 dts_time:8.28952 duration:1024 duration_time:0.02322 stream_index:1
pts:366592 pts_time:8.31274 dts:366592 dts_time:8.31274 duration:1024 duration_time:0.02322 stream_index:1
pts:90624 pts_time:7.08 dts:90112 dts_time:7.04 duration:0 duration_time:0 stream_index:0
pts:367616 pts_time:8.33596 dts:367616 dts_time:8.33596 duration:1024 duration_time:0.02322 stream_index:1
pts:91648 pts_time:7.16 dts:90624 dts_time:7.08 duration:0 duration_time:0 stream_index:0
pts:368640 pts_time:8.35918 dts:368640 dts_time:8.35918 duration:1024 duration_time:0.02322 stream_index:1
pts:369664 pts_time:8.3824 dts:369664 dts_time:8.3824 duration:1024 duration_time:0.02322 stream_index:1
pts:92672 pts_time:7.24 dts:91136 dts_time:7.12 duration:0 duration_time:0 stream_index:0
pts:370688 pts_time:8.40562 dts:370688 dts_time:8.40562 duration:1024 duration_time:0.02322 stream_index:1
pts:371712 pts_time:8.42884 dts:371712 dts_time:8.42884 duration:1024 duration_time:0.02322 stream_index:1
pts:92160 pts_time:7.2 dts:91648 dts_time:7.16 duration:0 duration_time:0 stream_index:0
pts:372736 pts_time:8.45206 dts:372736 dts_time:8.45206 duration:1024 duration_time:0.02322 stream_index:1
pts:93696 pts_time:7.32 dts:92160 dts_time:7.2 duration:0 duration_time:0 stream_index:0
pts:373760 pts_time:8.47528 dts:373760 dts_time:8.47528 duration:1024 duration_time:0.02322 stream_index:1
pts:374784 pts_time:8.4985 dts:374784 dts_time:8.4985 duration:1024 duration_time:0.02322 stream_index:1
pts:93184 pts_time:7.28 dts:92672 dts_time:7.24 duration:0 duration_time:0 stream_index:0
pts:375808 pts_time:8.52172 dts:375808 dts_time:8.52172 duration:1024 duration_time:0.02322 stream_index:1
pts:376832 pts_time:8.54494 dts:376832 dts_time:8.54494 duration:1024 duration_time:0.02322 stream_index:1
pts:94208 pts_time:7.36 dts:93184 dts_time:7.28 duration:0 duration_time:0 stream_index:0
pts:377856 pts_time:8.56816 dts:377856 dts_time:8.56816 duration:1024 duration_time:0.02322 stream_index:1
pts:378880 pts_time:8.59138 dts:378880 dts_time:8.59138 duration:1024 duration_time:0.02322 stream_index:1
pts:94720 pts_time:7.4 dts:93696 dts_time:7.32 duration:0 duration_time:0 stream_index:0
pts:379904 pts_time:8.6146 dts:379904 dts_time:8.6146 duration:1024 duration_time:0.02322 stream_index:1
pts:95232 pts_time:7.44 dts:94208 dts_time:7.36 duration:0 duration_time:0 stream_index:0
pts:380928 pts_time:8.63782 dts:380928 dts_time:8.63782 duration:1024 duration_time:0.02322 stream_index:1
pts:381952 pts_time:8.66104 dts:381952 dts_time:8.66104 duration:1024 duration_time:0.02322 stream_index:1
pts:95744 pts_time:7.48 dts:94720 dts_time:7.4 duration:0 duration_time:0 stream_index:0
pts:382976 pts_time:8.68426 dts:382976 dts_time:8.68426 duration:1024 duration_time:0.02322 stream_index:1
pts:384000 pts_time:8.70748 dts:384000 dts_time:8.70748 duration:1024 duration_time:0.02322 stream_index:1
pts:96256 pts_time:7.52 dts:95232 dts_time:7.44 duration:0 duration_time:0 stream_index:0
pts:385024 pts_time:8.7307 dts:385024 dts_time:8.7307 duration:1024 duration_time:0.02322 stream_index:1
pts:96768 pts_time:7.56 dts:95744 dts_time:7.48 duration:0 duration_time:0 stream_index:0
pts:386048 pts_time:8.75392 dts:386048 dts_time:8.75392 duration:1024 duration_time:0.02322 stream_index:1
pts:387072 pts_time:8.77714 dts:387072 dts_time:8.77714 duration:1024 duration_time:0.02322 stream_index:1
pts:98816 pts_time:7.72 dts:96256 dts_time:7.52 duration:0 duration_time:0 stream_index:0
pts:388096 pts_time:8.80036 dts:388096 dts_time:8.80036 duration:1024 duration_time:0.02322 stream_index:1
pts:389120 pts_time:8.82358 dts:389120 dts_time:8.82358 duration:1024 duration_time:0.02322 stream_index:1
pts:97792 pts_time:7.64 dts:96768 dts_time:7.56 duration:0 duration_time:0 stream_index:0
pts:390144 pts_time:8.8468 dts:390144 dts_time:8.8468 duration:1024 duration_time:0.02322 stream_index:1
pts:391168 pts_time:8.87002 dts:391168 dts_time:8.87002 duration:1024 duration_time:0.02322 stream_index:1
pts:97280 pts_time:7.6 dts:97280 dts_time:7.6 duration:0 duration_time:0 stream_index:0
pts:392192 pts_time:8.89324 dts:392192 dts_time:8.89324 duration:1024 duration_time:0.02322 stream_index:1
pts:98304 pts_time:7.68 dts:97792 dts_time:7.64 duration:0 duration_time:0 stream_index:0
pts:393216 pts_time:8.91646 dts:393216 dts_time:8.91646 duration:1024 duration_time:0.02322 stream_index:1
pts:394240 pts_time:8.93968 dts:394240 dts_time:8.93968 duration:1024 duration_time:0.02322 stream_index:1
pts:99840 pts_time:7.8 dts:98304 dts_time:7.68 duration:0 duration_time:0 stream_index:0
pts:395264 pts_time:8.9629 dts:395264 dts_time:8.9629 duration:1024 duration_time:0.02322 stream_index:1
pts:396288 pts_time:8.98612 dts:396288 dts_time:8.98612 duration:1024 duration_time:0.02322 stream_index:1
pts:99328 pts_time:7.76 dts:98816 dts_time:7.72 duration:0 duration_time:0 stream_index:0
pts:397312 pts_time:9.00934 dts:397312 dts_time:9.00934 duration:1024 duration_time:0.02322 stream_index:1
pts:398336 pts_time:9.03256 dts:398336 dts_time:9.03256 duration:1024 duration_time:0.02322 stream_index:1
pts:100352 pts_time:7.84 dts:99328 dts_time:7.76 duration:0 duration_time:0 stream_index:0
pts:399360 pts_time:9.05578 dts:399360 dts_time:9.05578 duration:1024 duration_time:0.02322 stream_index:1
pts:100864 pts_time:7.88 dts:99840 dts_time:7.8 duration:0 duration_time:0 stream_index:0
pts:400384 pts_time:9.079 dts:400384 dts_time:9.079 duration:1024 duration_time:0.02322 stream_index:1
pts:401408 pts_time:9.10222 dts:401408 dts_time:9.10222 duration:1024 duration_time:0.02322 stream_index:1
pts:101888 pts_time:7.96 dts:100352 dts_time:7.84 duration:0 duration_time:0 stream_index:0
pts:402432 pts_time:9.12544 dts:402432 dts_time:9.12544 duration:1024 duration_time:0.02322 stream_index:1
pts:403456 pts_time:9.14866 dts:403456 dts_time:9.14866 duration:1024 duration_time:0.02322 stream_index:1
pts:101376 pts_time:7.92 dts:100864 dts_time:7.88 duration:0 duration_time:0 stream_index:0
pts:404480 pts_time:9.17188 dts:404480 dts_time:9.17188 duration:1024 duration_time:0.02322 stream_index:1
pts:102912 pts_time:8.04 dts:101376 dts_time:7.92 duration:0 duration_time:0 stream_index:0
pts:405504 pts_time:9.1951 dts:405504 dts_time:9.1951 duration:1024 duration_time:0.02322 stream_index:1
pts:406528 pts_time:9.21832 dts:406528 dts_time:9.21832 duration:1024 duration_time:0.02322 stream_index:1
pts:102400 pts_time:8 dts:101888 dts_time:7.96 duration:0 duration_time:0 stream_index:0
pts:407552 pts_time:9.24154 dts:407552 dts_time:9.24154 duration:1024 duration_time:0.02322 stream_index:1
pts:408576 pts_time:9.26476 dts:408576 dts_time:9.26476 duration:1024 duration_time:0.02322 stream_index:1
pts:103424 pts_time:8.08 dts:102400 dts_time:8 duration:0 duration_time:0 stream_index:0
pts:409600 pts_time:9.28798 dts:409600 dts_time:9.28798 duration:1024 duration_time:0.02322 stream_index:1
pts:410624 pts_time:9.3112 dts:410624 dts_time:9.3112 duration:1024 duration_time:0.02322 stream_index:1
pts:103936 pts_time:8.12 dts:102912 dts_time:8.04 duration:0 duration_time:0 stream_index:0
pts:411648 pts_time:9.33442 dts:411648 dts_time:9.33442 duration:1024 duration_time:0.02322 stream_index:1
pts:104960 pts_time:8.2 dts:103424 dts_time:8.08 duration:0 duration_time:0 stream_index:0
pts:412672 pts_time:9.35764 dts:412672 dts_time:9.35764 duration:1024 duration_time:0.02322 stream_index:1
pts:413696 pts_time:9.38086 dts:413696 dts_time:9.38086 duration:1024 duration_time:0.02322 stream_index:1
pts:104448 pts_time:8.16 dts:103936 dts_time:8.12 duration:0 duration_time:0 stream_index:0
pts:414720 pts_time:9.40408 dts:414720 dts_time:9.40408 duration:1024 duration_time:0.02322 stream_index:1
pts:415744 pts_time:9.4273 dts:415744 dts_time:9.4273 duration:1024 duration_time:0.02322 stream_index:1
pts:105984 pts_time:8.28 dts:104448 dts_time:8.16 duration:0 duration_time:0 stream_index:0
pts:416768 pts_time:9.45052 dts:416768 dts_time:9.45052 duration:1024 duration_time:0.02322 stream_index:1
pts:105472 pts_time:8.24 dts:104960 dts_time:8.2 duration:0 duration_time:0 stream_index:0
pts:417792 pts_time:9.47374 dts:417792 dts_time:9.47374 duration:1024 duration_time:0.02322 stream_index:1
pts:418816 pts_time:9.49696 dts:418816 dts_time:9.49696 duration:1024 duration_time:0.02322 stream_index:1
pts:106496 pts_time:8.32 dts:105472 dts_time:8.24 duration:0 duration_time:0 stream_index:0
pts:419840 pts_time:9.52018 dts:419840 dts_time:9.52018 duration:1024 duration_time:0.02322 stream_index:1
pts:420864 pts_time:9.5434 dts:420864 dts_time:9.5434 duration:1024 duration_time:0.02322 stream_index:1
pts:107008 pts_time:8.36 dts:105984 dts_time:8.28 duration:0 duration_time:0 stream_index:0
pts:421888 pts_time:9.56662 dts:421888 dts_time:9.56662 duration:1024 duration_time:0.02322 stream_index:1
pts:422912 pts_time:9.58984 dts:422912 dts_time:9.58984 duration:1024 duration_time:0.02322 stream_index:1
pts:108032 pts_time:8.44 dts:106496 dts_time:8.32 duration:0 duration_time:0 stream_index:0
pts:423936 pts_time:9.61306 dts:423936 dts_time:9.61306 duration:1024 duration_time:0.02322 stream_index:1
pts:107520 pts_time:8.4 dts:107008 dts_time:8.36 duration:0 duration_time:0 stream_index:0
pts:424960 pts_time:9.63628 dts:424960 dts_time:9.63628 duration:1024 duration_time:0.02322 stream_index:1
pts:425984 pts_time:9.6595 dts:425984 dts_time:9.6595 duration:1024 duration_time:0.02322 stream_index:1
pts:108544 pts_time:8.48 dts:107520 dts_time:8.4 duration:0 duration_time:0 stream_index:0
pts:427008 pts_time:9.68272 dts:427008 dts_time:9.68272 duration:1024 duration_time:0.02322 stream_index:1
pts:428032 pts_time:9.70594 dts:428032 dts_time:9.70594 duration:1024 duration_time:0.02322 stream_index:1
pts:109056 pts_time:8.52 dts:108032 dts_time:8.44 duration:0 duration_time:0 stream_index:0
pts:429056 pts_time:9.72916 dts:429056 dts_time:9.72916 duration:1024 duration_time:0.02322 stream_index:1
pts:430080 pts_time:9.75238 dts:430080 dts_time:9.75238 duration:1024 duration_time:0.02322 stream_index:1
pts:109568 pts_time:8.56 dts:108544 dts_time:8.48 duration:0 duration_time:0 stream_index:0
pts:431104 pts_time:9.7756 dts:431104 dts_time:9.7756 duration:1024 duration_time:0.02322 stream_index:1
pts:110080 pts_time:8.6 dts:109056 dts_time:8.52 duration:0 duration_time:0 stream_index:0
pts:432128 pts_time:9.79882 dts:432128 dts_time:9.79882 duration:1024 duration_time:0.02322 stream_index:1
pts:433152 pts_time:9.82204 dts:433152 dts_time:9.82204 duration:1024 duration_time:0.02322 stream_index:1
pts:111104 pts_time:8.68 dts:109568 dts_time:8.56 duration:0 duration_time:0 stream_index:0
pts:434176 pts_time:9.84526 dts:434176 dts_time:9.84526 duration:1024 duration_time:0.02322 stream_index:1
pts:435200 pts_time:9.86848 dts:435200 dts_time:9.86848 duration:1024 duration_time:0.02322 stream_index:1
pts:110592 pts_time:8.64 dts:110080 dts_time:8.6 duration:0 duration_time:0 stream_index:0
pts:436224 pts_time:9.8917 dts:436224 dts_time:9.8917 duration:1024 duration_time:0.02322 stream_index:1
pts:112128 pts_time:8.76 dts:110592 dts_time:8.64 duration:0 duration_time:0 stream_index:0
pts:437248 pts_time:9.91492 dts:437248 dts_time:9.91492 duration:1024 duration_time:0.02322 stream_index:1
pts:438272 pts_time:9.93814 dts:438272 dts_time:9.93814 duration:1024 duration_time:0.02322 stream_index:1
pts:111616 pts_time:8.72 dts:111104 dts_time:8.68 duration:0 duration_time:0 stream_index:0
pts:439296 pts_time:9.96136 dts:439296 dts_time:9.96136 duration:1024 duration_time:0.02322 stream_index:1
pts:440320 pts_time:9.98458 dts:440320 dts_time:9.98458 duration:1024 duration_time:0.02322 stream_index:1
pts:112640 pts_time:8.8 dts:111616 dts_time:8.72 duration:0 duration_time:0 stream_index:0
pts:113152 pts_time:8.84 dts:112128 dts_time:8.76 duration:0 duration_time:0 stream_index:0
pts:114176 pts_time:8.92 dts:112640 dts_time:8.8 duration:0 duration_time:0 stream_index:0
pts:113664 pts_time:8.88 dts:113152 dts_time:8.84 duration:0 duration_time:0 stream_index:0
pts:114688 pts_time:8.96 dts:113664 dts_time:8.88 duration:0 duration_time:0 stream_index:0
pts:115712 pts_time:9.04 dts:114176 dts_time:8.92 duration:0 duration_time:0 stream_index:0
pts:115200 pts_time:9 dts:114688 dts_time:8.96 duration:0 duration_time:0 stream_index:0
pts:116224 pts_time:9.08 dts:115200 dts_time:9 duration:0 duration_time:0 stream_index:0
pts:117248 pts_time:9.16 dts:115712 dts_time:9.04 duration:0 duration_time:0 stream_index:0
pts:116736 pts_time:9.12 dts:116224 dts_time:9.08 duration:0 duration_time:0 stream_index:0
pts:118272 pts_time:9.24 dts:116736 dts_time:9.12 duration:0 duration_time:0 stream_index:0
pts:117760 pts_time:9.2 dts:117248 dts_time:9.16 duration:0 duration_time:0 stream_index:0
pts:118784 pts_time:9.28 dts:117760 dts_time:9.2 duration:0 duration_time:0 stream_index:0
pts:119296 pts_time:9.32 dts:118272 dts_time:9.24 duration:0 duration_time:0 stream_index:0
pts:120320 pts_time:9.4 dts:118784 dts_time:9.28 duration:0 duration_time:0 stream_index:0
pts:119808 pts_time:9.36 dts:119296 dts_time:9.32 duration:0 duration_time:0 stream_index:0
pts:121344 pts_time:9.48 dts:119808 dts_time:9.36 duration:0 duration_time:0 stream_index:0
pts:120832 pts_time:9.44 dts:120320 dts_time:9.4 duration:0 duration_time:0 stream_index:0
pts:123392 pts_time:9.64 dts:120832 dts_time:9.44 duration:0 duration_time:0 stream_index:0
pts:122368 pts_time:9.56 dts:121344 dts_time:9.48 duration:0 duration_time:0 stream_index:0
pts:121856 pts_time:9.52 dts:121856 dts_time:9.52 duration:0 duration_time:0 stream_index:0
pts:122880 pts_time:9.6 dts:122368 dts_time:9.56 duration:0 duration_time:0 stream_index:0
pts:124416 pts_time:9.72 dts:122880 dts_time:9.6 duration:0 duration_time:0 stream_index:0
pts:123904 pts_time:9.68 dts:123392 dts_time:9.64 duration:0 duration_time:0 stream_index:0
pts:124928 pts_time:9.76 dts:123904 dts_time:9.68 duration:0 duration_time:0 stream_index:0
pts:125440 pts_time:9.8 dts:124416 dts_time:9.72 duration:0 duration_time:0 stream_index:0
pts:126464 pts_time:9.88 dts:124928 dts_time:9.76 duration:0 duration_time:0 stream_index:0
pts:125952 pts_time:9.84 dts:125440 dts_time:9.8 duration:0 duration_time:0 stream_index:0
pts:127488 pts_time:9.96 dts:125952 dts_time:9.84 duration:0 duration_time:0 stream_index:0
pts:126976 pts_time:9.92 dts:126464 dts_time:9.88 duration:0 duration_time:0 stream_index:0
pts:128000 pts_time:10 dts:126976 dts_time:9.92 duration:0 duration_time:0 stream_index:0
[48;5;0m[38;5;51m[libx264 @ 0x40b70c76dc30] [0mframe I:22    Avg QP:27.90  size: 11241
[48;5;0m[38;5;51m[libx264 @ 0x40b70c76dc30] [0mframe P:156   Avg QP:31.47  size:  1630
[48;5;0m[38;5;51m[libx264 @ 0x40b70c76dc30] [0mframe B:73    Avg QP:37.03  size:   849
[48;5;0m[38;5;51m[libx264 @ 0x40b70c76dc30] [0mconsecutive B-frames: 48.6% 36.7%  3.6% 11.2%
[48;5;0m[38;5;51m[libx264 @ 0x40b70c76dc30] [0mmb I  I16..4: 38.8% 51.2% 10.0%
[48;5;0m[38;5;51m[libx264 @ 0x40b70c76dc30] [0mmb P  I16..4: 14.8%  3.7%  0.5%  P16..4: 26.5%  0.7%  0.9%  0.0%  0.0%    skip:52.9%
[48;5;0m[38;5;51m[libx264 @ 0x40b70c76dc30] [0mmb B  I16..4:  0.1%  2.5%  0.0%  B16..8: 20.4%  0.1%  0.0%  direct: 8.6%  skip:68.3%  L0:75.5% L1:24.0% BI: 0.5%
[48;5;0m[38;5;51m[libx264 @ 0x40b70c76dc30] [0mfinal ratefactor: 30.88
[48;5;0m[38;5;51m[libx264 @ 0x40b70c76dc30] [0m8x8 transform intra:35.3% inter:85.5%
[48;5;0m[38;5;51m[libx264 @ 0x40b70c76dc30] [0mcoded y,uvDC,uvAC intra: 35.0% 82.1% 23.9% inter: 2.9% 25.1% 2.1%
[48;5;0m[38;5;51m[libx264 @ 0x40b70c76dc30] [0mi16 v,h,dc,p:  9%  6%  3% 82%
[48;5;0m[38;5;51m[libx264 @ 0x40b70c76dc30] [0mi8 v,h,dc,ddl,ddr,vr,hd,vl,hu: 34% 14% 40%  4%  1%  1%  1%  2%  3%
[48;5;0m[38;5;51m[libx264 @ 0x40b70c76dc30] [0mi4 v,h,dc,ddl,ddr,vr,hd,vl,hu: 36% 18% 24% 14%  2%  2%  1%  2%  1%
[48;5;0m[38;5;51m[libx264 @ 0x40b70c76dc30] [0mi8c dc,h,v,p: 34% 32% 18% 16%
[48;5;0m[38;5;51m[libx264 @ 0x40b70c76dc30] [0mWeighted P-Frames: Y:6.4% UV:1.3%
[48;5;0m[38;5;51m[libx264 @ 0x40b70c76dc30] [0mref P L0: 88.3%  6.8%  4.1%  0.7%  0.1%
[48;5;0m[38;5;51m[libx264 @ 0x40b70c76dc30] [0mref B L0: 96.3%  3.3%  0.3%
[48;5;0m[38;5;51m[libx264 @ 0x40b70c76dc30] [0mkb/s:449.03
[48;5;0m[38;5;51m[aac @ 0x40b70c76f1e0] [0mQavg: 143.240
